<?xml version="1.0" standalone="no"?>
<!DOCTYPE svg PUBLIC "-//W3C//DTD SVG 20010904//EN"
 "http://www.w3.org/TR/2001/REC-SVG-20010904/DTD/svg10.dtd">
<svg version="1.0" xmlns="http://www.w3.org/2000/svg"
 width="120.000000pt" height="91.000000pt" viewBox="0 0 120.000000 91.000000"
 preserveAspectRatio="xMidYMid meet">
<metadata>
Created by potrace 1.13, written by Peter Selinger 2001-2015
</metadata>
<g transform="translate(0.000000,91.000000) scale(0.100000,-0.100000)"
fill="#000000" stroke="none">
<path d="M328 760 c-134 -76 -228 -161 -228 -208 0 -47 32 -58 185 -67 139 -8
189 -21 200 -54 21 -67 -130 -181 -241 -181 -58 0 -91 18 -108 61 -24 60 -66
47 -66 -20 1 -74 68 -116 174 -109 88 6 143 30 224 97 96 80 120 131 90 196
-25 56 -123 84 -290 85 -64 0 -78 3 -78 15 0 34 136 125 210 140 41 9 92 33
102 49 9 13 -30 56 -51 56 -9 0 -64 -27 -123 -60z"/>
<path d="M643 761 c-42 -27 -41 -44 3 -85 36 -33 37 -36 46 -135 11 -114 8
-133 -24 -131 -46 4 -49 1 -46 -37 3 -36 5 -38 43 -43 l40 -5 0 -57 c0 -41 5
-62 17 -75 17 -16 19 -16 45 4 22 16 27 27 23 49 -2 16 -4 53 -5 83 l0 55 60
35 c91 54 200 166 215 220 17 65 7 89 -48 114 -39 17 -71 21 -192 24 -133 4
-148 3 -177 -16z m326 -71 c26 -13 26 -26 1 -78 -27 -55 -178 -178 -196 -159
-3 3 -7 57 -8 118 -1 111 -1 113 24 127 29 15 146 10 179 -8z"/>
</g>
</svg>
